<?xml version="1.0" encoding="UTF-8" standalone="no"?>
<!-- Generated by dot version 1.13 (v16) (Mon August 23, 2004)
     For user: (haubi) Haubi   Title: ac    Pages: 1 -->
<svg xmlns:dc="http://purl.org/dc/elements/1.1/" xmlns:cc="http://creativecommons.org/ns#" xmlns:rdf="http://www.w3.org/1999/02/22-rdf-syntax-ns#" xmlns:svg="http://www.w3.org/2000/svg" xmlns="http://www.w3.org/2000/svg" xmlns:sodipodi="http://sodipodi.sourceforge.net/DTD/sodipodi-0.dtd" xmlns:inkscape="http://www.inkscape.org/namespaces/inkscape" width="332pt" height="644pt" viewBox="-1 -1 331 643" id="svg2" version="1.1" inkscape:version="0.47 r22583" sodipodi:docname="Autoconf.svg">
  <metadata id="metadata228">
    <rdf:RDF>
      <cc:Work rdf:about="">
        <dc:format>image/svg+xml</dc:format>
        <dc:type rdf:resource="http://purl.org/dc/dcmitype/StillImage"/>
      </cc:Work>
    </rdf:RDF>
  </metadata>
  <defs id="defs226">
    <inkscape:perspective sodipodi:type="inkscape:persp3d" inkscape:vp_x="0 : 402.5 : 1" inkscape:vp_y="0 : 1000 : 0" inkscape:vp_z="415 : 402.5 : 1" inkscape:persp3d-origin="207.5 : 268.33333 : 1" id="perspective230"/>
    <inkscape:perspective id="perspective3046" inkscape:persp3d-origin="0.5 : 0.33333333 : 1" inkscape:vp_z="1 : 0.5 : 1" inkscape:vp_y="0 : 1000 : 0" inkscape:vp_x="0 : 0.5 : 1" sodipodi:type="inkscape:persp3d"/>
    <inkscape:perspective id="perspective3077" inkscape:persp3d-origin="0.5 : 0.33333333 : 1" inkscape:vp_z="1 : 0.5 : 1" inkscape:vp_y="0 : 1000 : 0" inkscape:vp_x="0 : 0.5 : 1" sodipodi:type="inkscape:persp3d"/>
    <inkscape:perspective id="perspective3124" inkscape:persp3d-origin="0.5 : 0.33333333 : 1" inkscape:vp_z="1 : 0.5 : 1" inkscape:vp_y="0 : 1000 : 0" inkscape:vp_x="0 : 0.5 : 1" sodipodi:type="inkscape:persp3d"/>
    <inkscape:perspective id="perspective3155" inkscape:persp3d-origin="0.5 : 0.33333333 : 1" inkscape:vp_z="1 : 0.5 : 1" inkscape:vp_y="0 : 1000 : 0" inkscape:vp_x="0 : 0.5 : 1" sodipodi:type="inkscape:persp3d"/>
  </defs>
  <sodipodi:namedview pagecolor="#ffffff" bordercolor="#666666" borderopacity="1" objecttolerance="10" gridtolerance="10" guidetolerance="10" inkscape:pageopacity="0" inkscape:pageshadow="2" inkscape:window-width="1280" inkscape:window-height="961" id="namedview224" showgrid="false" inkscape:zoom="1.1726708" inkscape:cx="187.95613" inkscape:cy="123.32138" inkscape:window-x="-4" inkscape:window-y="-3" inkscape:window-maximized="1" inkscape:current-layer="graph0">
    <inkscape:grid type="xygrid" id="grid3036"/>
  </sodipodi:namedview>
  <g id="graph0" class="graph" style="font-family:Times-Roman;font-size:14.00;">
    <title id="title5">ac</title>
    <g id="graph2" class="cluster">
      <title id="title8">cluster_0</title>
      <polygon style="fill:none;stroke:lightgrey;stroke-dasharray:5,2;" points="13,376 317,376 317,12 13,12 13,376" id="polygon10"/>
      <text text-anchor="middle" x="165" y="29" id="text12">developer</text>
    </g>
    <g id="graph3" class="cluster">
      <title id="title15">cluster_1</title>
      <polygon style="fill:none;stroke:lightgrey;stroke-dasharray:5,2;" points="124,620 230,620 230,396 124,396 124,620" id="polygon17"/>
      <text x="177" y="613" id="text19" text-anchor="middle">user</text>
    </g>
    <g id="node2" class="node">
      <title id="title22">autoscan</title>
      <ellipse cx="106" cy="62" rx="36" ry="18" style="fill:#ffffff;stroke:black" id="ellipse24"/>
      <text text-anchor="middle" x="106" y="67" id="text26">autoscan</text>
    </g>
    <g id="node4" class="node">
      <title id="title29">configure.ac</title>
      <polygon style="fill:#ffffff;stroke:black" points="147,116 65,116 65,152 147,152 147,116" id="polygon31"/>
      <text text-anchor="middle" x="106" y="139" id="text33">configure.ac</text>
    </g>
    <g id="edge3" class="edge">
      <title id="title36">autoscan-&gt;configure.ac</title>
      <path style="fill:none;stroke:black;" d="M106,80C106,88 106,97 106,106" id="path38"/>
      <polygon style="fill:black;stroke:black;" points="110,106 106,116 103,106 110,106" id="polygon40"/>
    </g>
    <g id="node6" class="node">
      <title id="title43">autoconf</title>
      <ellipse cx="112" cy="350" rx="36" ry="18" style="fill:#ffffff;stroke:black" id="ellipse45"/>
      <text text-anchor="middle" x="112" y="355" id="text47">autoconf</text>
    </g>
    <g id="edge5" class="edge">
      <title id="title50">configure.ac-&gt;autoconf</title>
      <path style="fill:none;stroke:black;" d="M107,152C108,190 110,277 112,322" id="path52"/>
      <polygon style="fill:black;stroke:black;" points="116,322 112,332 109,322 116,322" id="polygon54"/>
    </g>
    <g id="node8" class="node">
      <title id="title57">aclocal</title>
      <ellipse cx="54" cy="206" rx="32" ry="18" style="fill:#ffffff;stroke:black" id="ellipse59"/>
      <text text-anchor="middle" x="54" y="211" id="text61">aclocal</text>
    </g>
    <g id="edge7" class="edge">
      <title id="title64">configure.ac-&gt;aclocal</title>
      <path style="fill:none;stroke:black;" d="M93,152C86,160 79,171 72,181" id="path66"/>
      <polygon style="fill:black;stroke:black;" points="75,183 66,189 69,179 75,183" id="polygon68"/>
    </g>
    <g id="node10" class="node">
      <title id="title71">autoheader</title>
      <ellipse cx="168" cy="206" rx="43" ry="18" style="fill:#ffffff;stroke:black" id="ellipse73"/>
      <text text-anchor="middle" x="168" y="211" id="text75">autoheader</text>
    </g>
    <g id="edge9" class="edge">
      <title id="title78">configure.ac-&gt;autoheader</title>
      <path style="fill:none;stroke:black;" d="M122,152C130,161 139,171 146,181" id="path80"/>
      <polygon style="fill:black;stroke:black;" points="149,179 153,189 144,184 149,179" id="polygon82"/>
    </g>
    <g id="node22" class="node">
      <title id="title85">configure</title>
      <polygon style="fill:#ffffff;stroke:black" points="222,424 199,405 155,405 132,424 155,443 199,443 222,424" id="polygon87"/>
      <text x="177" y="429" id="text89" text-anchor="middle">configure</text>
    </g>
    <g id="edge25" class="edge">
      <title id="title92">autoconf-&gt;configure</title>
      <path style="fill:none;stroke:black;" d="M127,367C135,376 144,387 153,397" id="path94"/>
      <polygon style="fill:black;stroke:black;" points="155,394 160,404 150,399 155,394" id="polygon96"/>
    </g>
    <g id="node12" class="node">
      <title id="title99">aclocal.m4</title>
      <polygon style="fill:#ffffff;stroke:black" points="97,260 21,260 21,296 97,296 97,260" id="polygon101"/>
      <text text-anchor="middle" x="59" y="283" id="text103">aclocal.m4</text>
    </g>
    <g id="edge11" class="edge">
      <title id="title106">aclocal-&gt;aclocal.m4</title>
      <path style="fill:none;stroke:black;" d="M55,224C56,232 56,241 57,250" id="path108"/>
      <polygon style="fill:black;stroke:black;" points="60,250 58,260 54,250 60,250" id="polygon110"/>
    </g>
    <g id="node14" class="node">
      <title id="title113">config.h.in</title>
      <polygon style="fill:#ffffff;stroke:black" points="210,260 136,260 136,296 210,296 210,260" id="polygon115"/>
      <text text-anchor="middle" x="173" y="283" id="text117">config.h.in</text>
    </g>
    <g id="edge14" class="edge">
      <title id="title120">autoheader-&gt;config.h.in</title>
      <path style="fill:none;stroke:black;" d="M169,224C170,232 170,241 171,250" id="path122"/>
      <polygon style="fill:black;stroke:black;" points="174,250 172,260 168,250 174,250" id="polygon124"/>
    </g>
    <g id="edge12" class="edge">
      <title id="title127">aclocal.m4-&gt;autoconf</title>
      <path style="fill:none;stroke:black;" d="M72,296C78,304 86,315 93,325" id="path129"/>
      <polygon style="fill:black;stroke:black;" points="96,323 99,333 90,327 96,323" id="polygon131"/>
    </g>
    <g id="edge29" class="edge">
      <title id="title134">config.h.in-&gt;configure</title>
      <path style="fill:none;stroke:black;" d="M173,296C174,320 176,365 177,394" id="path136"/>
      <polygon style="fill:black;stroke:black;" points="181,394 177,404 174,394 181,394" id="polygon138"/>
    </g>
    <g id="node15" class="node">
      <title id="title141">Makefile.am</title>
      <polygon style="fill:#ffffff;stroke:black" points="309,116 223,116 223,152 309,152 309,116" id="polygon143"/>
      <text text-anchor="middle" x="266" y="139" id="text145">Makefile.am</text>
    </g>
    <g id="node17" class="node">
      <title id="title148">automake</title>
      <ellipse cx="269" cy="206" rx="40" ry="18" style="fill:#ffffff;stroke:black" id="ellipse150"/>
      <text text-anchor="middle" x="269" y="211" id="text152">automake</text>
    </g>
    <g id="edge16" class="edge">
      <title id="title155">Makefile.am-&gt;automake</title>
      <path style="fill:none;stroke:black;" d="M267,152C268,160 268,169 268,178" id="path157"/>
      <polygon style="fill:black;stroke:black;" points="272,178 268,188 265,178 272,178" id="polygon159"/>
    </g>
    <g id="node18" class="node">
      <title id="title162">Makefile.in</title>
      <polygon style="fill:#ffffff;stroke:black" points="309,260 229,260 229,296 309,296 309,260" id="polygon164"/>
      <text text-anchor="middle" x="269" y="283" id="text166">Makefile.in</text>
    </g>
    <g id="edge17" class="edge">
      <title id="title169">automake-&gt;Makefile.in</title>
      <path style="fill:none;stroke:black;" d="M269,224C269,232 269,241 269,250" id="path171"/>
      <polygon style="fill:black;stroke:black;" points="273,250 269,260 266,250 273,250" id="polygon173"/>
    </g>
    <g id="edge27" class="edge">
      <title id="title176">Makefile.in-&gt;configure</title>
      <path style="fill:none;stroke:black;" d="M258,296C242,320 214,366 195,396" id="path178"/>
      <polygon style="fill:black;stroke:black;" points="198,397 190,404 192,394 198,397" id="polygon180"/>
    </g>
    <g id="node19" class="node">
      <title id="title183">ed</title>
      <ellipse cx="266" cy="62" rx="27" ry="18" style="fill:#ffffff;stroke:black" id="ellipse185"/>
      <text text-anchor="middle" x="266" y="67" id="text187">ed</text>
    </g>
    <g id="edge19" class="edge">
      <title id="title190">ed-&gt;Makefile.am</title>
      <path style="fill:none;stroke:black;" d="M266,80C266,88 266,97 266,106" id="path192"/>
      <polygon style="fill:black;stroke:black;" points="270,106 266,116 263,106 270,106" id="polygon194"/>
    </g>
    <g id="node24" class="node">
      <title id="title197">Makefile</title>
      <polygon style="fill:#ffffff;stroke:black" points="209,480 145,480 145,516 209,516 209,480" id="polygon199"/>
      <text x="177" y="503" id="text201" text-anchor="middle">Makefile</text>
    </g>
    <g id="edge22" class="edge">
      <title id="title204">configure-&gt;Makefile</title>
      <path style="fill:none;stroke:black;" d="M177,444C177,452 177,461 177,470" id="path206"/>
      <polygon style="fill:black;stroke:black;" points="181,470 177,480 174,470 181,470" id="polygon208"/>
    </g>
    <g id="node25" class="node">
      <title id="title211">make</title>
      <ellipse cx="177" cy="570" rx="28" ry="18" style="fill:#ffffff;stroke:black" id="ellipse213"/>
      <text x="177" y="575" id="text215" text-anchor="middle">make</text>
    </g>
    <g id="edge23" class="edge">
      <title id="title218">Makefile-&gt;make</title>
      <path style="fill:none;stroke:black;" d="M177,516C177,524 177,533 177,542" id="path220"/>
      <polygon style="fill:black;stroke:black;" points="181,542 177,552 174,542 181,542" id="polygon222"/>
    </g>
    <g transform="translate(104.24845,190.04348)" style="font-size:14px;font-family:Times-Roman" id="node22-2" class="node">
      <title id="title85-3">configure</title>
      <polygon style="fill:#ffffff;stroke:#000000" points="199,443 222,424 222,424 199,405 155,405 132,424 155,443 " id="polygon87-7"/>
      <text style="text-anchor:middle" x="177" y="429" id="text89-5">script</text>
    </g>
    <g transform="translate(12.248447,303.14907)" style="font-size:14px;font-family:Times-Roman" id="node17-9" class="node">
      <title id="title148-7">automake</title>
      <ellipse sodipodi:ry="18" sodipodi:rx="40" sodipodi:cy="206" sodipodi:cx="269" d="m 309,206 c 0,9.94113 -17.90861,18 -40,18 -22.09139,0 -40,-8.05887 -40,-18 0,-9.94113 17.90861,-18 40,-18 22.09139,0 40,8.05887 40,18 z" cx="269" cy="206" rx="40" ry="18" style="fill:#ffffff;stroke:#000000" id="ellipse150-3"/>
      <text style="text-anchor:middle" x="269" y="211" id="text152-6">application</text>
    </g>
    <g transform="translate(12.248447,283.12423)" style="font-size:14px;font-family:Times-Roman" id="node18-1" class="node">
      <title id="title162-2">Makefile.in</title>
      <polygon style="fill:#ffffff;stroke:#000000" points="229,260 229,296 309,296 309,260 309,260 " id="polygon164-9"/>
      <text style="text-anchor:middle" x="269" y="283" id="text166-3">file</text>
    </g>
  </g>
</svg>